<svg width="446" height="100" viewBox="0 0 446 100" fill="none" xmlns="http://www.w3.org/2000/svg">
<mask id="mask0_862_25682" style="mask-type:luminance" maskUnits="userSpaceOnUse" x="0" y="10" width="446" height="81">
<path d="M445.387 10H0V90.37H445.387V10Z" fill="white"/>
</mask>
<g mask="url(#mask0_862_25682)">
<path d="M63.8232 90.37H16.5115C7.409 90.37 0 82.961 0 73.8232V26.5115C0 17.409 7.409 10 16.5115 10H63.8232C72.961 10 80.3347 17.409 80.3347 26.5115V73.8232C80.37 82.961 72.961 90.37 63.8232 90.37Z" fill="#EF3346"/>
<path d="M28.647 45.5985C28.647 44.9281 28.1883 44.4695 27.518 44.4695H19.6856C19.0153 44.4695 18.5566 44.9281 18.5566 45.5985V53.3956C18.5566 54.0659 19.0153 54.5246 19.6856 54.5246H27.4827C28.153 54.5246 28.6117 54.0659 28.6117 53.3956V45.5985H28.647Z" fill="#191E3B"/>
<path d="M45.9008 62.8862C45.9008 62.2159 45.4068 61.7572 44.7718 61.7572H36.9747C36.3044 61.7572 35.8457 62.2159 35.8457 62.8862V70.6833C35.8457 71.3536 36.3044 71.8123 36.9747 71.8123H44.7718C45.4421 71.8123 45.9008 71.3536 45.9008 70.6833V62.8862Z" fill="#191E3B"/>
<path d="M45.9008 45.5985C45.9008 44.9281 45.4421 44.4695 44.7718 44.4695H36.9747C36.3044 44.4695 35.8457 44.9281 35.8457 45.5985V53.3956C35.8457 54.0659 36.3044 54.5246 36.9747 54.5246H44.7718C45.4421 54.5246 45.9008 54.0659 45.9008 53.3956V45.5985Z" fill="#FDDB32"/>
<path d="M270.252 54.454C271.381 46.5157 275.544 41.3294 283.8 41.3294C292.268 41.3294 296.748 46.1982 297.383 54.454H270.252ZM284.012 33.5323C270.781 33.5323 260.232 43.0582 260.232 58.8288C260.232 74.9876 269.547 84.9014 285.247 84.9014C294.279 84.9014 301.793 80.9148 306.45 75.3757C306.733 75.0934 306.839 74.8112 306.839 74.5289C306.839 74.2467 306.733 73.9643 306.45 73.6821L302.076 69.4132C301.793 69.1309 301.511 69.0251 301.229 69.0251C300.947 69.0251 300.664 69.2014 300.382 69.5189C296.783 73.4351 292.091 76.7516 285.352 76.7516C275.509 76.7516 270.781 70.6833 270.041 61.8983H306.556C307.227 61.8983 307.685 61.4043 307.685 60.7692V58.8642C307.685 44.399 298.936 33.5323 284.012 33.5323Z" fill="#191E3B"/>
<path d="M157.777 16.8798H149.874C149.204 16.8798 148.745 17.3737 148.745 18.0088V44.6459H116.675V18.044C116.675 17.3737 116.216 16.915 115.546 16.915H107.643C106.972 16.915 106.514 17.409 106.514 18.044V82.3259C106.514 82.9963 106.972 83.4549 107.643 83.4549H115.546C116.216 83.4549 116.675 82.961 116.675 82.3259V53.6072H148.745V82.3259C148.745 82.9963 149.204 83.4549 149.874 83.4549H157.777C158.447 83.4549 158.906 82.961 158.906 82.3259V18.044C158.941 17.3737 158.447 16.8798 157.777 16.8798Z" fill="#191E3B"/>
<path d="M325.009 16.8798H317.389C316.718 16.8798 316.26 17.3737 316.26 18.0088V82.3259C316.26 82.9963 316.718 83.4549 317.389 83.4549H325.009C325.68 83.4549 326.138 82.961 326.138 82.3259V18.044C326.138 17.3737 325.645 16.8798 325.009 16.8798Z" fill="#191E3B"/>
<path d="M193.762 76.5399C183.213 76.5399 177.603 68.6369 177.603 59.2169C177.603 49.7969 183.213 41.894 193.762 41.894C204.311 41.894 209.921 49.7969 209.921 59.2169C209.921 68.6369 204.311 76.5399 193.762 76.5399ZM193.762 33.5323C179.579 33.5323 167.689 44.0108 167.689 59.2169C167.689 74.423 179.579 84.9014 193.762 84.9014C207.945 84.9014 219.835 74.423 219.835 59.2169C219.835 44.0108 207.91 33.5323 193.762 33.5323Z" fill="#191E3B"/>
<path d="M254.411 35.0495H242.063V18.9613C242.063 18.1146 241.216 17.7265 240.652 18.291L232.96 25.9823C232.502 26.4409 232.184 26.9348 232.184 27.6757V35.0495H223.717C223.047 35.0495 222.588 35.5081 222.588 36.1784V41.5059C222.588 42.1762 223.047 42.6349 223.717 42.6349H232.184V68.6016C232.184 77.6336 236.453 83.4549 245.485 83.4549H254.411C255.082 83.4549 255.54 82.9963 255.54 82.3259V76.2576C255.54 75.5873 255.082 75.1286 254.411 75.1286H248.131C243.651 75.1286 242.063 73.3999 242.063 68.9545V42.6701H254.411C255.082 42.6701 255.54 42.2115 255.54 41.5412V36.2137C255.576 35.5434 255.082 35.0495 254.411 35.0495Z" fill="#191E3B"/>
<path d="M382.799 79.327H379.518C379.2 79.327 378.953 79.5387 378.953 79.8915V82.961C378.953 83.2785 379.165 83.5255 379.518 83.5255H382.799C383.116 83.5255 383.363 83.3138 383.363 82.961V79.8915C383.363 79.574 383.152 79.327 382.799 79.327Z" fill="#191E3B"/>
<path d="M412.399 80.8795C409.33 80.8795 407.777 78.7979 407.777 76.046C407.777 73.3999 409.294 71.2125 412.399 71.2125C415.468 71.2125 417.021 73.3999 417.021 76.046C416.986 78.7979 415.468 80.8795 412.399 80.8795ZM412.399 68.2842C408.13 68.2842 404.496 71.4595 404.496 76.0813C404.496 80.8089 408.13 83.8784 412.399 83.8784C416.668 83.8784 420.302 80.8089 420.302 76.0813C420.302 71.4595 416.668 68.2842 412.399 68.2842Z" fill="#191E3B"/>
<path d="M356.479 54.454C348.682 52.7605 344.872 51.4198 344.872 47.3979C344.872 43.5875 348.294 41.3294 354.398 41.3294C359.831 41.3294 364.1 43.7992 366.852 47.7154C367.24 48.2799 367.91 48.3857 368.475 47.9976L373.626 44.6811C374.19 44.293 374.402 43.7286 374.014 43.0583C369.815 36.6725 363.183 33.5323 354.503 33.5323C344.801 33.5323 336.157 38.2954 336.157 47.9976C336.157 58.1938 344.237 60.8398 354.892 63.1331C362.406 64.756 365.723 65.9908 365.723 70.4715C365.723 74.8463 361.807 77.1397 355.244 77.1397C348.4 77.1397 344.025 74.4583 340.991 70.0129C340.603 69.3426 339.932 69.1662 339.262 69.6249L334.111 73.1882C333.547 73.5763 333.441 74.1407 333.723 74.7052C337.604 81.2675 344.836 84.972 355.139 84.972C367.981 84.972 375.39 78.5862 375.39 70.0482C375.39 60.0637 367.134 56.8531 356.479 54.454Z" fill="#191E3B"/>
<path d="M439.883 68.2842C437.696 68.2842 436.249 69.1662 435.05 70.5774C434.274 69.272 432.651 68.2842 430.675 68.2842C428.593 68.2842 427.288 69.272 426.512 70.3658V69.272C426.512 68.9545 426.3 68.7075 425.947 68.7075H423.76C423.442 68.7075 423.195 68.9192 423.195 69.272V82.9963C423.195 83.3139 423.407 83.5608 423.76 83.5608H426.053C426.371 83.5608 426.618 83.3491 426.618 82.9963V75.8696C426.618 73.1177 427.394 71.2478 429.793 71.2478C431.874 71.2478 432.545 72.4473 432.545 74.4231V82.9611C432.545 83.2786 432.756 83.5255 433.109 83.5255H435.403C435.72 83.5255 435.967 83.3139 435.967 82.9611V75.8343C435.967 73.0824 436.849 71.2125 439.248 71.2125C441.224 71.2125 442 72.4121 442 74.3878V82.9258C442 83.2433 442.212 83.4903 442.565 83.4903H444.858C445.175 83.4903 445.422 83.2786 445.422 82.9258V73.9291C445.352 70.5774 443.27 68.2842 439.883 68.2842Z" fill="#191E3B"/>
<path d="M400.863 78.5862C400.545 78.2687 400.193 78.3745 399.981 78.5862C398.464 80.2444 397.441 80.8795 395.818 80.8795C393.066 80.8795 391.655 78.7979 391.655 76.046C391.655 73.3999 392.854 71.2125 395.712 71.2125C397.582 71.2125 398.57 71.9887 399.558 73.0824C399.769 73.2941 400.122 73.3999 400.44 73.1882L401.745 72.0945C402.062 71.8828 402.309 71.53 401.957 71.1067C400.757 69.4485 398.675 68.2489 395.712 68.2489C391.196 68.2489 388.268 71.3183 388.268 76.046C388.268 80.7736 391.231 83.9489 395.606 83.9489C398.675 83.9489 400.863 82.6435 402.309 80.6678C402.521 80.3503 402.521 80.1033 402.309 79.8916L400.863 78.5862Z" fill="#191E3B"/>
<path d="M65.9058 29.6162C65.9058 26.7585 63.6126 24.4652 60.7548 24.4652H22.3339C21.5577 24.4652 21.099 24.7475 20.6404 25.2414L12.9139 32.9326C12.3494 33.4971 12.7375 34.3792 13.5842 34.3792H55.9919V76.7869C55.9919 77.6336 56.8386 78.0217 57.4384 77.4572L65.1649 69.7659C65.6589 69.272 65.9058 68.8134 65.9058 68.0372V29.6162Z" fill="#191E3B"/>
</g>
</svg>
